<?xml version="1.0" standalone="no"?><!DOCTYPE svg PUBLIC "-//W3C//DTD SVG 1.1//EN" "http://www.w3.org/Graphics/SVG/1.1/DTD/svg11.dtd"><svg t="1711970948123" class="icon" viewBox="0 0 1024 1024" version="1.1" xmlns="http://www.w3.org/2000/svg" p-id="9604" xmlns:xlink="http://www.w3.org/1999/xlink" width="200" height="200"><path d="M937.265341 181.705678l9.898083-45.498668h-413.407511c-322.410174-3.955621-456.919337 191.856631-456.919337 381.744483 0 106.819819 31.644965 199.785935 96.921736 265.062706 65.276771 67.245551 158.242887 104.832978 263.075865 104.832978 102.864198 0 191.874694-35.600586 257.133403-102.864199 61.321151-61.321151 96.921736-148.344804 102.864198-247.253382 110.77544-63.28993 138.464784-187.919073 140.433563-193.843472l7.911242-37.587428h-55.378689c17.809324-27.671282 35.600586-71.183109 47.467447-124.593018z m-654.71843 314.498933v-19.778103c0-15.822482 13.853703-29.676186 29.676185-29.676186s29.658124 13.853703 29.658124 29.676186v19.778103c0 15.822482-13.835641 29.676186-29.658124 29.676186-15.822482 0-29.676186-11.866862-29.676185-29.676186z m270.987106 185.932231c-37.587427 27.689344-81.099254 43.511827-126.597923 43.511827s-89.010495-13.835641-126.597922-43.511827c-7.911241-5.9244-9.88002-19.778103-3.95562-27.689344 5.9244-7.911241 19.778103-9.898083 27.689344-3.955621 29.676186 21.764945 65.276771 35.600586 102.864198 35.600586 37.587427 0 73.188013-11.866862 102.864199-35.600586 7.911241-5.942462 21.764945-5.942462 27.689344 3.955621 5.942462 9.898083 5.942462 21.764945-3.95562 27.689344z m19.778103-185.932231c0 15.822482-13.853703 29.676186-29.676186 29.676186s-29.676186-13.853703-29.676186-29.676186v-19.778103c0-15.822482 13.853703-29.676186 29.676186-29.676186s29.676186 13.853703 29.676186 29.676186v19.778103z m0 0" fill="#F86161" p-id="9605"></path></svg>